<svg width="160" height="32" viewBox="0 0 160 32" fill="none" xmlns="http://www.w3.org/2000/svg">
  <g clip-path="url(#clip0_6352_3685)">
  <path d="M9.10095 6.39526L9.09586 6.39864C5.59282 8.72651 3.5 12.6229 3.5 16.828C3.5 23.7274 9.10952 29.3333 16 29.3333C22.8905 29.3333 28.5 23.7274 28.5 16.828C28.5 12.6228 26.4071 8.7264 22.9002 6.39854L22.8992 6.39791C22.2316 5.9578 21.3248 6.13732 20.8811 6.81415C20.4333 7.4875 20.6184 8.39768 21.2881 8.84421L21.2888 8.84472C23.9758 10.6265 25.5779 13.6113 25.5779 16.828C25.5779 22.1043 21.283 26.4044 16 26.4044C10.717 26.4044 6.42208 22.1043 6.42208 16.828C6.42208 13.6113 8.02419 10.6265 10.7112 8.84472L10.7119 8.84421C11.3815 8.39777 11.5666 7.48786 11.1191 6.81456C10.8441 6.39302 10.383 6.16011 9.9164 6.15906C9.6304 6.15459 9.34853 6.23678 9.10095 6.39526Z" fill="white"/>
  <path d="M16 2.66663C15.1963 2.66663 14.539 3.31952 14.539 4.13107V14.0678C14.539 14.8794 15.1963 15.5323 16 15.5323C16.8037 15.5323 17.461 14.8794 17.461 14.0678V4.13107C17.461 3.31952 16.8037 2.66663 16 2.66663Z" fill="white"/>
  <path d="M46 23.2C44.6 23.2 43.4867 22.8 42.66 22C41.8467 21.2 41.44 20.0933 41.44 18.68V12.72C41.44 11.3067 41.8467 10.2 42.66 9.4C43.4867 8.6 44.6 8.2 46 8.2C47.4 8.2 48.5067 8.6 49.32 9.4C50.1467 10.2 50.56 11.3 50.56 12.7V18.68C50.56 20.0933 50.1467 21.2 49.32 22C48.5067 22.8 47.4 23.2 46 23.2ZM46 21C46.68 21 47.1933 20.82 47.54 20.46C47.8867 20.0867 48.06 19.56 48.06 18.88V12.52C48.06 11.84 47.8867 11.32 47.54 10.96C47.1933 10.5867 46.68 10.4 46 10.4C45.32 10.4 44.8067 10.5867 44.46 10.96C44.1133 11.32 43.94 11.84 43.94 12.52V18.88C43.94 19.56 44.1133 20.0867 44.46 20.46C44.8067 20.82 45.32 21 46 21ZM53.5322 26.6V12H55.9722V14.02C56.1722 13.3267 56.5322 12.7867 57.0522 12.4C57.5722 12 58.2189 11.8 58.9922 11.8C59.6989 11.8 60.3189 11.9733 60.8522 12.32C61.3989 12.6667 61.8189 13.16 62.1122 13.8C62.4189 14.4267 62.5722 15.16 62.5722 16V18.98C62.5722 20.2467 62.2455 21.2667 61.5922 22.04C60.9389 22.8133 60.0722 23.2 58.9922 23.2C58.2189 23.2 57.5655 23 57.0322 22.6C56.5122 22.2 56.1522 21.64 55.9522 20.92L56.0322 23.52V26.6H53.5322ZM58.0522 21.04C58.6922 21.04 59.1855 20.8667 59.5322 20.52C59.8922 20.1733 60.0722 19.64 60.0722 18.92V16.08C60.0722 15.36 59.8922 14.8267 59.5322 14.48C59.1855 14.1333 58.6922 13.96 58.0522 13.96C57.4122 13.96 56.9122 14.1533 56.5522 14.54C56.2055 14.9267 56.0322 15.4733 56.0322 16.18V18.82C56.0322 19.5267 56.2055 20.0733 56.5522 20.46C56.9122 20.8467 57.4122 21.04 58.0522 21.04ZM70.0044 23.2C69.071 23.2 68.2577 23.02 67.5644 22.66C66.871 22.3 66.331 21.7933 65.9444 21.14C65.571 20.4733 65.3844 19.6933 65.3844 18.8V16.2C65.3844 15.3067 65.571 14.5333 65.9444 13.88C66.331 13.2133 66.871 12.7 67.5644 12.34C68.2577 11.98 69.071 11.8 70.0044 11.8C70.9244 11.8 71.7244 11.98 72.4044 12.34C73.0977 12.7 73.631 13.2067 74.0044 13.86C74.391 14.5 74.5844 15.2533 74.5844 16.12V18.12H67.7844V18.88C67.7844 19.6267 67.9777 20.1933 68.3644 20.58C68.751 20.9533 69.2977 21.14 70.0044 21.14C70.5244 21.14 70.9644 21.0533 71.3244 20.88C71.6977 20.6933 71.9177 20.4267 71.9844 20.08H74.4644C74.291 21.0267 73.7977 21.7867 72.9844 22.36C72.171 22.92 71.1777 23.2 70.0044 23.2ZM67.7844 16.12V16.5L72.1844 16.48V16.1C72.1844 15.34 71.9977 14.7533 71.6244 14.34C71.251 13.9267 70.711 13.72 70.0044 13.72C69.271 13.72 68.7177 13.9333 68.3444 14.36C67.971 14.7733 67.7844 15.36 67.7844 16.12ZM77.5166 23V12H79.9566V14.06C80.0899 13.3667 80.4166 12.82 80.9366 12.42C81.4566 12.0067 82.1166 11.8 82.9166 11.8C83.9966 11.8 84.8566 12.16 85.4966 12.88C86.1499 13.6 86.4766 14.5667 86.4766 15.78V23H83.9766V16.08C83.9766 15.4 83.7966 14.88 83.4366 14.52C83.0899 14.1467 82.6166 13.96 82.0166 13.96C81.3899 13.96 80.8966 14.1467 80.5366 14.52C80.1899 14.8933 80.0166 15.4267 80.0166 16.12V23H77.5166ZM88.6688 23L92.3488 8.4H95.5688L99.2687 23H96.7088L95.9088 19.46H92.0288L91.2288 23H88.6688ZM92.4888 17.42H95.4488L94.5688 13.5C94.4221 12.8467 94.2954 12.26 94.1888 11.74C94.0821 11.2067 94.0088 10.82 93.9688 10.58C93.9288 10.82 93.8554 11.2067 93.7488 11.74C93.6421 12.26 93.5154 12.84 93.3688 13.48L92.4888 17.42ZM103.001 26.6V24.52H106.101C106.688 24.52 107.141 24.36 107.461 24.04C107.781 23.7333 107.941 23.3133 107.941 22.78V22.12L107.981 20.4C107.754 21.0133 107.388 21.4933 106.881 21.84C106.388 22.1733 105.781 22.34 105.061 22.34C103.941 22.34 103.048 21.9667 102.381 21.22C101.728 20.46 101.401 19.4333 101.401 18.14V16C101.401 14.72 101.728 13.7 102.381 12.94C103.048 12.18 103.941 11.8 105.061 11.8C105.781 11.8 106.388 11.9733 106.881 12.32C107.388 12.6533 107.754 13.1333 107.981 13.76V12H110.421V22.84C110.421 24 110.034 24.9133 109.261 25.58C108.501 26.26 107.461 26.6 106.141 26.6H103.001ZM105.901 20.2C106.541 20.2 107.034 20.0133 107.381 19.64C107.741 19.2533 107.921 18.72 107.921 18.04V16.12C107.921 15.44 107.741 14.9133 107.381 14.54C107.034 14.1533 106.541 13.96 105.901 13.96C105.261 13.96 104.768 14.1467 104.421 14.52C104.074 14.88 103.901 15.3867 103.901 16.04V18.12C103.901 18.7733 104.074 19.2867 104.421 19.66C104.768 20.02 105.261 20.2 105.901 20.2ZM117.973 23.2C117.04 23.2 116.226 23.02 115.533 22.66C114.84 22.3 114.3 21.7933 113.913 21.14C113.54 20.4733 113.353 19.6933 113.353 18.8V16.2C113.353 15.3067 113.54 14.5333 113.913 13.88C114.3 13.2133 114.84 12.7 115.533 12.34C116.226 11.98 117.04 11.8 117.973 11.8C118.893 11.8 119.693 11.98 120.373 12.34C121.066 12.7 121.6 13.2067 121.973 13.86C122.36 14.5 122.553 15.2533 122.553 16.12V18.12H115.753V18.88C115.753 19.6267 115.946 20.1933 116.333 20.58C116.72 20.9533 117.266 21.14 117.973 21.14C118.493 21.14 118.933 21.0533 119.293 20.88C119.666 20.6933 119.886 20.4267 119.953 20.08H122.433C122.26 21.0267 121.766 21.7867 120.953 22.36C120.14 22.92 119.146 23.2 117.973 23.2ZM115.753 16.12V16.5L120.153 16.48V16.1C120.153 15.34 119.966 14.7533 119.593 14.34C119.22 13.9267 118.68 13.72 117.973 13.72C117.24 13.72 116.686 13.9333 116.313 14.36C115.94 14.7733 115.753 15.36 115.753 16.12ZM125.485 23V12H127.925V14.06C128.059 13.3667 128.385 12.82 128.905 12.42C129.425 12.0067 130.085 11.8 130.885 11.8C131.965 11.8 132.825 12.16 133.465 12.88C134.119 13.6 134.445 14.5667 134.445 15.78V23H131.945V16.08C131.945 15.4 131.765 14.88 131.405 14.52C131.059 14.1467 130.585 13.96 129.985 13.96C129.359 13.96 128.865 14.1467 128.505 14.52C128.159 14.8933 127.985 15.4267 127.985 16.12V23H125.485ZM143.038 23C142.011 23 141.191 22.7067 140.578 22.12C139.978 21.52 139.678 20.7133 139.678 19.7V14.26H136.638V12H139.678V8.9H142.198V12H146.578V14.26H142.198V19.64C142.198 19.96 142.284 20.2267 142.458 20.44C142.644 20.64 142.898 20.74 143.218 20.74H146.478V23H143.038ZM153.47 23.18C152.163 23.18 151.13 22.8867 150.37 22.3C149.61 21.7 149.23 20.8933 149.23 19.88H151.69C151.69 20.3067 151.843 20.6333 152.15 20.86C152.47 21.0867 152.91 21.2 153.47 21.2H154.35C154.95 21.2 155.41 21.0867 155.73 20.86C156.063 20.6333 156.23 20.3067 156.23 19.88C156.23 19.48 156.116 19.1867 155.89 19C155.663 18.8 155.316 18.6667 154.85 18.6L152.11 18.24C151.23 18.12 150.55 17.78 150.07 17.22C149.603 16.66 149.37 15.9333 149.37 15.04C149.37 14 149.716 13.2067 150.41 12.66C151.103 12.1 152.103 11.82 153.41 11.82H154.33C155.556 11.82 156.543 12.1 157.29 12.66C158.036 13.22 158.423 13.9667 158.45 14.9H155.97C155.956 14.5533 155.803 14.28 155.51 14.08C155.216 13.8667 154.823 13.76 154.33 13.76H153.41C152.876 13.76 152.47 13.8733 152.19 14.1C151.91 14.3133 151.77 14.6067 151.77 14.98C151.77 15.3133 151.87 15.56 152.07 15.72C152.283 15.88 152.59 15.98 152.99 16.02L155.57 16.38C156.583 16.5 157.343 16.86 157.85 17.46C158.37 18.0467 158.63 18.84 158.63 19.84C158.63 20.9067 158.263 21.7333 157.53 22.32C156.81 22.8933 155.75 23.18 154.35 23.18H153.47Z" fill="white"/>
  </g>
  <defs>
  <clipPath id="clip0_6352_3685">
  <rect width="160" height="32" fill="white"/>
  </clipPath>
  </defs>
  </svg>
